<?xml version="1.0" encoding="utf-8"?>
<svg viewBox="0 0 24 24" xmlns="http://www.w3.org/2000/svg" xmlns:bx="https://boxy-svg.com">
  <path style="" transform="matrix(0, -0.039858, 0.039858, 0, -2.307099, 26.282569)" d="M 184 359.571 A 174.858 174.858 0 0 1 358.857 184.142 L 358.857 359 Z" bx:shape="pie 358.857 359 0 174.858 269.813 360 1@b3ca6e50"/>
  <path fill="#000000" d="M12 2C17.5 2 22 6.5 22 12C22 17.5 17.5 22 12 22C6.5 22 2 17.5 2 12C2 6.5 6.5 2 12 2M12 4C7.58 4 4 7.58 4 12C4 16.42 7.58 20 12 20C16.42 20 20 16.42 20 12C20 7.58 16.42 4 12 4M12 5C15.87 5 19 8.13 19 12H12V5Z"/>
</svg>
