<svg width="24.000000000000004" height="24.000000000000004" xmlns="http://www.w3.org/2000/svg">

 <g>
  <title>background</title>
  <rect fill="none" id="canvas_background" height="602" width="802" y="-1" x="-1"/>
 </g>
 <g>
  <title>Layer 1</title>
  <path transform="rotate(45 12.000000000000005,11.999999999999998) " id="svg_1" d="m12,2c5.5,0 10,4.5 10,10c0,5.5 -4.5,10 -10,10c-5.5,0 -10,-4.5 -10,-10c0,-5.5 4.5,-10 10,-10m0,2c-4.42,0 -8,3.58 -8,8c0,4.42 3.58,8 8,8c4.42,0 8,-3.58 8,-8c0,-4.42 -3.58,-8 -8,-8m0,1c3.87,0 7,3.13 7,7l-7,0l0,-7z" fill="#000000"/>
  <path transform="rotate(-135 11.935317039489744,11.999999999999998) " id="svg_2" d="m11.93532,2c5.5,0 10,4.5 10,10c0,5.5 -4.5,10 -10,10c-5.5,0 -10,-4.5 -10,-10c0,-5.5 4.5,-10 10,-10m0,2c-4.42,0 -8,3.58 -8,8c0,4.42 3.58,8 8,8c4.42,0 8,-3.58 8,-8c0,-4.42 -3.58,-8 -8,-8m0,1c3.87,0 7,3.13 7,7l-7,0l0,-7z" fill="#0000008a"/>
 </g>
</svg>
